<?xml version="1.0" encoding="UTF-8" standalone="no"?>
<!-- Generator: Adobe Illustrator 19.0.0, SVG Export Plug-In . SVG Version: 6.00 Build 0)  -->

<svg
   xmlns:dc="http://purl.org/dc/elements/1.1/"
   xmlns:cc="http://creativecommons.org/ns#"
   xmlns:rdf="http://www.w3.org/1999/02/22-rdf-syntax-ns#"
   xmlns:svg="http://www.w3.org/2000/svg"
   xmlns="http://www.w3.org/2000/svg"
   xmlns:sodipodi="http://sodipodi.sourceforge.net/DTD/sodipodi-0.dtd"
   xmlns:inkscape="http://www.inkscape.org/namespaces/inkscape"
   version="1.1"
   id="Layer_1"
   x="0px"
   y="0px"
   viewBox="0 0 460 460"
   style="enable-background:new 0 0 460 460;"
   xml:space="preserve"
   inkscape:version="0.91 r13725"
   sodipodi:docname="ear.svg"><metadata
     id="metadata45"><rdf:RDF><cc:Work
         rdf:about=""><dc:format>image/svg+xml</dc:format><dc:type
           rdf:resource="http://purl.org/dc/dcmitype/StillImage" /></cc:Work></rdf:RDF></metadata><defs
     id="defs43" /><sodipodi:namedview
     pagecolor="#ffffff"
     bordercolor="#666666"
     borderopacity="1"
     objecttolerance="10"
     gridtolerance="10"
     guidetolerance="10"
     inkscape:pageopacity="0"
     inkscape:pageshadow="2"
     inkscape:window-width="1007"
     inkscape:window-height="612"
     id="namedview41"
     showgrid="false"
     inkscape:zoom="0.72555304"
     inkscape:cx="253.42728"
     inkscape:cy="212.97115"
     inkscape:window-x="0"
     inkscape:window-y="23"
     inkscape:window-maximized="0"
     inkscape:current-layer="Layer_1" /><g
     id="g11" /><g
     id="g13" /><g
     id="g15" /><g
     id="g17" /><g
     id="g19" /><g
     id="g21" /><g
     id="g23" /><g
     id="g25" /><g
     id="g27" /><g
     id="g29" /><g
     id="g31" /><g
     id="g33" /><g
     id="g35" /><g
     id="g37" /><g
     id="g39" /><g
     id="XMLID_2897_"
     transform="matrix(1.1004109,0,0,1,-6.5267078,0)"><path
       id="XMLID_851_"
       style="fill:#eabfa6"
       d="m 395,185 0,0 c 0,102.173 -82.827,185 -185,185 l -10,0 c -24.853,0 -45,20.147 -45,45 l 0,0 c 0,24.853 -20.147,45 -45,45 l 0,0 C 85.147,460 65,439.853 65,415 l 0,-45 0,-250 C 65,53.726 118.726,0 185,0 l 25,0 c 102.173,0 185,82.827 185,185 z"
       inkscape:connector-curvature="0" /><path
       id="XMLID_853_"
       style="fill:#f2cab6"
       d="m 105,370 0,45 c 0,17.667 10.186,32.947 25,40.311 -6.026,2.996 -12.814,4.689 -20,4.689 -24.853,0 -45,-20.147 -45,-45 l 0,-45 0,-250 C 65,53.726 118.726,0 185,0 l 25,0 c 2.766,0 5.514,0.072 8.251,0.193 C 155.117,3.693 105,55.991 105,120 l 0,250 z"
       inkscape:connector-curvature="0" /><path
       id="XMLID_917_"
       style="fill:#dda997"
       d="m 395,185 0,0 c 0,102.173 -82.827,185 -185,185 l -10,0 c -24.818,0 -45.048,20.092 -45,44.911 C 155.048,439.804 134.883,460 110,460 89.274,460 71.832,445.983 66.607,426.916 71.682,428.9 77.199,430 82.977,430 c 24.883,0 45.048,-20.196 45,-45.089 -0.048,-24.818 20.182,-44.911 45,-44.911 l 10,0 c 102.173,0 185,-82.827 185,-185 l 0,0 c 0,-1.51 0.004,-2.936 0,-4.307 l 0,-15.439 c 0,-8.425 6.829,-15.254 15.254,-15.254 l 0,0 C 390.829,140.222 395,162.121 395,185 Z"
       inkscape:connector-curvature="0" /><path
       id="XMLID_1251_"
       style="fill:#f2cab6"
       d="m 331.75,157.75 0,0 c 0,32.811 -16.644,61.723 -41.938,78.791 C 272.889,262.692 243.467,280 210,280 l -5,0 c 0,16.849 -13.89,30.453 -30.843,29.988 C 157.816,309.54 145,295.723 145,279.376 l 0,-20.646 c 0,-4.584 3.128,-8.54 7.565,-9.692 C 165.471,245.685 175,233.956 175,220 l 0,0 c 0,-13.956 -9.529,-25.685 -22.435,-29.038 C 148.128,189.809 145,185.853 145,181.27 L 145,155 c 0,-35.843 43.272,-62.288 34.23,-57.52 10.889,-20.648 32.554,-34.73 57.52,-34.73 52.467,0 95,42.533 95,95 z"
       inkscape:connector-curvature="0" /><path
       id="XMLID_1252_"
       style="fill:#d8987f"
       d="m 305,185 0,0 c 0,52.467 -42.533,95 -95,95 l -5,0 c 0,16.849 -13.89,30.453 -30.843,29.988 C 157.816,309.54 145,295.723 145,279.376 l 0,-20.646 c 0,-4.584 3.128,-8.54 7.565,-9.692 C 165.471,245.685 175,233.956 175,220 l 0,0 c 0,-13.955 -9.529,-25.685 -22.435,-29.038 C 148.128,189.809 145,185.854 145,181.27 L 145,155 c 0,-35.898 29.101,-65 65,-65 l 0,0 c 52.467,0 95,42.533 95,95 z"
       inkscape:connector-curvature="0" /><path
       id="XMLID_1261_"
       style="fill:#c48572"
       d="m 305.067,185 0,0 c 0,23.341 -8.423,44.712 -22.388,61.251 1.561,-6.833 2.388,-13.945 2.388,-21.251 l 0,0 c 0,-52.467 -42.533,-95 -95,-95 l 0,0 c -17.265,0 -32.945,6.744 -44.584,17.725 C 149.101,115.253 176.629,90 210.067,90 l 0,0 c 52.467,0 95,42.533 95,95 z"
       inkscape:connector-curvature="0" /><path
       id="XMLID_1253_"
       style="fill:#c48572"
       d="m 174.936,221.511 0.023,0 0,88.479 c -0.268,0 -0.533,0.006 -0.802,-0.001 C 157.816,309.54 145,295.723 145,279.376 l 0,-20.646 c 0,-4.584 3.128,-8.54 7.565,-9.692 12.435,-3.23 21.709,-14.245 22.371,-27.527 z"
       inkscape:connector-curvature="0" /></g><rect
     style="fill:#000000;fill-rule:evenodd;stroke:#000000;stroke-width:0.99413311px;stroke-linecap:butt;stroke-linejoin:miter;stroke-opacity:1;fill-opacity:0.19607843"
     id="rect3373"
     width="460"
     height="460"
     x="6.8883615"
     y="0.0029305816" /></svg>